<?xml version="1.0" encoding="UTF-8" standalone="no"?>
<!DOCTYPE svg PUBLIC "-//W3C//DTD SVG 1.1//EN" "http://www.w3.org/Graphics/SVG/1.1/DTD/svg11.dtd">
<svg width="100%" height="100%" viewBox="0 0 403 838" version="1.1" xmlns="http://www.w3.org/2000/svg" xmlns:xlink="http://www.w3.org/1999/xlink" xml:space="preserve" xmlns:serif="http://www.serif.com/" style="fill-rule:evenodd;clip-rule:evenodd;stroke-linejoin:round;stroke-miterlimit:2;">
    <g transform="matrix(1,0,0,1,-203.898199,-121.397381)">
        <g id="Flame" transform="matrix(1.003906,0,0,1.003906,0,26)">
            <path d="M291.062,298.062C290.879,298.574 292.012,298.989 291.829,299.5C291.715,299.82 285.569,306.795 278.715,315.662C278.571,315.595 276.914,314.825 276.914,314.825C273.468,317.919 257.143,341.727 252.984,351.693C205.613,465.213 340.897,483.04 390.265,509.961C466.911,551.758 445.314,616.626 436.272,644.429C435.864,645.556 435.856,645.527 431.108,658.5C430.099,661.258 429.967,661.289 430.106,661.5C430.481,662.067 431.394,662.113 431.768,662.68C423.108,676.249 417.153,683.839 415.74,686.705C405.368,707.744 429.409,648.164 405.239,601.631C365.616,525.35 243.024,550.195 211.679,481.414C175.033,401.004 266.187,316.349 291.062,298.062Z" style="fill:rgb(1,47,124);"/>
            <path d="M505.224,295.389C505.619,295.935 506.519,295.953 506.914,296.5C508.01,298.019 486.735,354.175 500.98,412.382C516.549,475.993 556.224,529.494 561.063,588.5C561.512,593.983 562.887,599.379 562.957,607.5C562.966,608.489 563.011,608.443 562.955,608.5C562.172,609.309 561.859,608.635 561.015,609.508C561.283,636.731 566.096,699.962 464.904,803.897C445.882,823.434 445.502,822.955 426.749,842.755C421.142,848.675 421.301,848.676 415.4,854.394C414.433,855.331 414.378,854.724 413.129,854.195C595.514,665.225 475.89,545.928 460.806,453.454C452.198,400.683 467.095,377.889 503.951,297.693C504.77,295.91 504.837,296.088 505.224,295.389Z" style="fill:rgb(23,88,151);"/>
            <path d="M505.224,295.389C515.705,270.201 509.165,263.565 514.072,265.876C516.561,267.048 507.349,297.307 552.869,408.361C579.02,472.159 583.615,486.44 585.85,493.385C585.625,493.999 584.461,493.886 584.236,494.5C582.27,499.865 630.311,608.223 524.048,743.142C469.604,812.269 396.719,873.775 379.008,895.045C378.603,895.507 374.358,900.349 373.587,900.5C372.881,900.639 372.712,898.892 372.006,899.031C392.256,876.315 392.662,876.831 413.129,854.195C414.378,854.724 414.433,855.331 415.4,854.394C421.301,848.676 421.142,848.675 426.749,842.755C445.502,822.955 445.882,823.434 464.904,803.897C566.096,699.962 561.283,636.731 561.015,609.508C561.859,608.635 562.172,609.309 562.955,608.5C563.011,608.443 562.966,608.489 562.957,607.5C562.887,599.379 561.512,593.983 561.063,588.5C556.224,529.494 516.549,475.993 500.98,412.382C486.735,354.175 508.01,298.019 506.914,296.5C506.519,295.953 505.619,295.935 505.224,295.389Z" style="fill:rgb(18,98,166);"/>
            <path d="M291.062,298.062C296.047,293.772 296.027,293.812 296.446,293.428C296.922,292.992 311.463,279.677 303.489,289.495C301.553,291.879 290.202,305.855 285.82,323.579C269.602,389.181 314.865,413.963 331.488,423.521C373.973,447.949 450.745,462.65 464.269,531.55C476.501,593.873 442.066,646.236 431.768,662.68C431.394,662.113 430.481,662.067 430.106,661.5C429.967,661.289 430.099,661.258 431.108,658.5C435.856,645.527 435.864,645.556 436.272,644.429C438.335,644.203 438.323,644.216 438.5,644.185C440.411,643.845 439.129,642.897 439.681,641.738C443.917,632.858 449.72,608.749 449.629,597.508C448.831,498.734 348.712,498.119 288.263,459.903C215.129,413.667 258.456,340.425 278.715,315.662C285.569,306.795 291.715,299.82 291.829,299.5C292.012,298.989 290.879,298.574 291.062,298.062Z" style="fill:rgb(31,115,180);"/>
            <path d="M407.181,107.625C403.143,97.269 399.662,93.703 403.522,95.451C404.081,95.705 421.581,114.21 423.137,115.855C451.859,146.228 494.508,208.127 476.612,279.528C460.638,343.26 418.429,388.776 426.046,442.509C426.601,446.427 419.481,440.506 408.287,434.927C396.814,429.209 390.996,426.472 381.195,417.776C381.44,417.237 382.183,417.038 382.428,416.5C382.905,415.454 379.517,411.437 377.952,398.476C376.321,339.584 408.749,319.29 427.805,255.599C445.626,196.034 432.55,154.372 417.507,120.497C409.968,107.674 410.234,107.417 408.836,106.5C408.278,106.134 407.739,107.991 407.181,107.625Z" style="fill:rgb(1,45,122);"/>
            <path d="M225.185,554.4C232.35,533.917 232.967,532.581 234.305,533.79C240.488,539.371 250.415,553.21 303.582,570.25C309.55,572.163 304.534,574.754 301.044,604.455C297.663,633.219 298.66,685.416 322.924,726.255C324.002,728.07 325.174,729.828 326.266,731.636C328.013,734.527 326.076,734.33 323.944,736.887C319.424,734.87 319.896,738.072 304.766,746.972C297.124,751.467 295.939,752.713 289.606,756.645C287.555,751.557 282.812,749.722 273.439,738.547C210.771,663.833 222.521,588.618 223.919,573.527C225.288,565.437 224.83,565.479 226.574,557.5C227.245,554.432 225.516,555.138 225.185,554.4Z" style="fill:rgb(1,76,116);"/>
            <path d="M585.85,493.385C618.246,596.549 600.428,657.703 590.719,688.568C590.49,688.267 591.348,684.858 588.5,687.629C583.844,692.159 580.798,723.076 519.054,782.061C510.765,789.98 479.891,819.475 409.201,874.077C407.528,875.369 389.739,889.11 388.148,890.039C380.397,894.565 381.23,895.698 380.5,895.955C379.951,896.149 379.558,894.851 379.008,895.045C396.719,873.775 469.604,812.269 524.048,743.142C630.311,608.223 582.27,499.865 584.236,494.5C584.461,493.886 585.625,493.999 585.85,493.385Z" style="fill:rgb(2,82,128);"/>
            <path d="M407.181,107.625C407.739,107.991 408.278,106.134 408.836,106.5C410.234,107.417 409.968,107.674 417.507,120.497C417.38,120.78 418.004,121.066 417.878,121.349C417.665,121.828 415.795,121.868 418.519,128.495C457.127,222.424 402.628,298.207 385.615,339.551C383.8,343.961 369.867,377.82 375.911,398.364C376.244,399.496 376.224,399.495 376.32,399.5C377.407,399.56 376.864,398.416 377.952,398.476C379.517,411.437 382.905,415.454 382.428,416.5C382.183,417.038 381.44,417.237 381.195,417.776C311.244,353.709 388.749,282.821 408.147,208.414C422.967,151.569 410.85,118.966 407.181,107.625Z" style="fill:rgb(51,155,212);"/>
            <path d="M225.185,554.4C225.516,555.138 227.245,554.432 226.574,557.5C224.83,565.479 225.288,565.437 223.919,573.527C223.367,573.81 222.611,573.217 222.059,573.5C219.236,574.947 203.871,669.531 269.789,739.202C286.572,756.939 288.997,756.947 289.137,757.028C288.595,758.787 272.084,793.943 269.218,804.443C269.152,804.686 268.613,806.661 268.319,807.451C267.535,809.554 267.896,809.567 268.669,811.616C265.824,815.567 263.62,810.646 260.849,807.224C193.818,724.461 202.962,618.758 225.185,554.4Z" style="fill:rgb(17,172,167);"/>
            <path d="M590.719,688.568C545.642,810.257 450.956,846.68 358.456,919.439C356.988,920.594 344.719,933.086 346.687,927.55C347.606,924.966 349.409,926.489 372.006,899.031C372.712,898.892 372.881,900.639 373.587,900.5C374.358,900.349 378.603,895.507 379.008,895.045C379.558,894.851 379.951,896.149 380.5,895.955C381.23,895.698 380.397,894.565 388.148,890.039C389.739,889.11 407.528,875.369 409.201,874.077C479.891,819.475 510.765,789.98 519.054,782.061C580.798,723.076 583.844,692.159 588.5,687.629C591.348,684.858 590.49,688.267 590.719,688.568Z" style="fill:rgb(4,48,94);"/>
            <path d="M278.715,315.662C258.456,340.425 215.129,413.667 288.263,459.903C348.712,498.119 448.831,498.734 449.629,597.508C449.72,608.749 443.917,632.858 439.681,641.738C439.129,642.897 440.411,643.845 438.5,644.185C438.323,644.216 438.335,644.203 436.272,644.429C445.314,616.626 466.911,551.758 390.265,509.961C340.897,483.04 205.613,465.213 252.984,351.693C257.143,341.727 273.468,317.919 276.914,314.825C276.914,314.825 278.571,315.595 278.715,315.662Z" style="fill:rgb(123,184,214);"/>
            <path d="M417.507,120.497C432.55,154.372 445.626,196.034 427.805,255.599C408.749,319.29 376.321,339.584 377.952,398.476C376.864,398.416 377.407,399.56 376.32,399.5C376.224,399.495 376.244,399.496 375.911,398.364C369.867,377.82 383.8,343.961 385.615,339.551C402.628,298.207 457.127,222.424 418.519,128.495C415.795,121.868 417.665,121.828 417.878,121.349C418.004,121.066 417.38,120.78 417.507,120.497Z" style="fill:rgb(149,201,226);"/>
            <path d="M223.919,573.527C222.521,588.618 210.771,663.833 273.439,738.547C282.812,749.722 287.555,751.557 289.606,756.645L289.137,757.028C288.997,756.947 286.572,756.939 269.789,739.202C203.871,669.531 219.236,574.947 222.059,573.5C222.611,573.217 223.367,573.81 223.919,573.527Z" style="fill:rgb(128,201,212);"/>
            <path d="M323.944,736.887C290.429,771.217 272.195,805.069 268.669,811.616C267.896,809.567 267.535,809.554 268.319,807.451C268.613,806.661 269.152,804.686 269.218,804.443C272.084,793.943 288.595,758.787 289.137,757.028L289.606,756.645C295.939,752.713 297.124,751.467 304.766,746.972C319.896,738.072 319.424,734.87 323.944,736.887Z" style="fill:rgb(3,67,84);"/>
        </g>
    </g>
</svg>
